<svg role="img" viewBox="0 0 24 24" fill="white" xmlns="http://www.w3.org/2000/svg">
<title>LinkedIn icon</title>
<path d="M20.447 20.452h-3.554v-5.569c0-1.328-.027-3.037-1.852-3.037 
-1.853 0-2.136 1.445-2.136 2.939v5.667H9.351V9h3.414v1.561h.049 
c.476-.9 1.637-1.852 3.37-1.852 
3.601 0 4.268 2.37 4.268 5.455v6.288zM5.337 
7.433c-1.144 0-2.067-.926-2.067-2.067 
0-1.144.923-2.066 2.067-2.066 
1.143 0 2.066.922 2.066 2.066 
0 1.141-.923 2.067-2.066 2.067zM7.119 
20.452H3.554V9h3.565v11.452zM22.225 
0H1.771C.792 0 0 .771 0 1.723v20.555C0 
23.23.792 24 1.771 24h20.451C23.2 24 24 
23.23 24 22.278V1.723C24 .771 23.2 0 22.222 0h.003z"></path>
</svg>
